%TF.GenerationSoftware,KiCad,Pcbnew,9.0.1*%
%TF.CreationDate,2025-05-12T14:22:17+02:00*%
%TF.ProjectId,PENDA2,50454e44-4132-42e6-9b69-6361645f7063,rev?*%
%TF.SameCoordinates,Original*%
%TF.FileFunction,Paste,Bot*%
%TF.FilePolarity,Positive*%
%FSLAX46Y46*%
G04 Gerber Fmt 4.6, Leading zero omitted, Abs format (unit mm)*
G04 Created by KiCad (PCBNEW 9.0.1) date 2025-05-12 14:22:17*
%MOMM*%
%LPD*%
G01*
G04 APERTURE LIST*
G04 Aperture macros list*
%AMRoundRect*
0 Rectangle with rounded corners*
0 $1 Rounding radius*
0 $2 $3 $4 $5 $6 $7 $8 $9 X,Y pos of 4 corners*
0 Add a 4 corners polygon primitive as box body*
4,1,4,$2,$3,$4,$5,$6,$7,$8,$9,$2,$3,0*
0 Add four circle primitives for the rounded corners*
1,1,$1+$1,$2,$3*
1,1,$1+$1,$4,$5*
1,1,$1+$1,$6,$7*
1,1,$1+$1,$8,$9*
0 Add four rect primitives between the rounded corners*
20,1,$1+$1,$2,$3,$4,$5,0*
20,1,$1+$1,$4,$5,$6,$7,0*
20,1,$1+$1,$6,$7,$8,$9,0*
20,1,$1+$1,$8,$9,$2,$3,0*%
%AMFreePoly0*
4,1,9,3.862500,-0.866500,0.737500,-0.866500,0.737500,-0.450000,-0.737500,-0.450000,-0.737500,0.450000,0.737500,0.450000,0.737500,0.866500,3.862500,0.866500,3.862500,-0.866500,3.862500,-0.866500,$1*%
G04 Aperture macros list end*
%ADD10RoundRect,0.225000X0.425000X0.225000X-0.425000X0.225000X-0.425000X-0.225000X0.425000X-0.225000X0*%
%ADD11FreePoly0,180.000000*%
%ADD12RoundRect,0.225000X-0.425000X-0.225000X0.425000X-0.225000X0.425000X0.225000X-0.425000X0.225000X0*%
%ADD13FreePoly0,0.000000*%
%ADD14RoundRect,0.375000X-0.625000X-0.375000X0.625000X-0.375000X0.625000X0.375000X-0.625000X0.375000X0*%
%ADD15RoundRect,0.500000X-0.500000X-1.400000X0.500000X-1.400000X0.500000X1.400000X-0.500000X1.400000X0*%
%ADD16RoundRect,0.250000X0.625000X-0.400000X0.625000X0.400000X-0.625000X0.400000X-0.625000X-0.400000X0*%
%ADD17RoundRect,0.250000X1.250000X0.550000X-1.250000X0.550000X-1.250000X-0.550000X1.250000X-0.550000X0*%
%ADD18RoundRect,0.250000X0.400000X0.625000X-0.400000X0.625000X-0.400000X-0.625000X0.400000X-0.625000X0*%
%ADD19RoundRect,0.250000X-0.625000X0.400000X-0.625000X-0.400000X0.625000X-0.400000X0.625000X0.400000X0*%
%ADD20RoundRect,0.250000X0.475000X-0.337500X0.475000X0.337500X-0.475000X0.337500X-0.475000X-0.337500X0*%
%ADD21RoundRect,0.250000X-0.400000X-0.625000X0.400000X-0.625000X0.400000X0.625000X-0.400000X0.625000X0*%
%ADD22RoundRect,0.250000X-0.337500X-0.475000X0.337500X-0.475000X0.337500X0.475000X-0.337500X0.475000X0*%
%ADD23RoundRect,0.250000X-0.650000X0.412500X-0.650000X-0.412500X0.650000X-0.412500X0.650000X0.412500X0*%
%ADD24RoundRect,0.250000X-0.412500X-0.650000X0.412500X-0.650000X0.412500X0.650000X-0.412500X0.650000X0*%
%ADD25RoundRect,0.250000X0.650000X-0.412500X0.650000X0.412500X-0.650000X0.412500X-0.650000X-0.412500X0*%
%ADD26RoundRect,0.225000X0.225000X-0.425000X0.225000X0.425000X-0.225000X0.425000X-0.225000X-0.425000X0*%
%ADD27FreePoly0,90.000000*%
%ADD28RoundRect,0.250000X0.412500X0.650000X-0.412500X0.650000X-0.412500X-0.650000X0.412500X-0.650000X0*%
%ADD29RoundRect,0.250000X0.550000X-1.500000X0.550000X1.500000X-0.550000X1.500000X-0.550000X-1.500000X0*%
%ADD30RoundRect,0.250000X-0.325000X-0.450000X0.325000X-0.450000X0.325000X0.450000X-0.325000X0.450000X0*%
%ADD31RoundRect,0.250000X-0.550000X1.250000X-0.550000X-1.250000X0.550000X-1.250000X0.550000X1.250000X0*%
%ADD32RoundRect,0.250000X0.337500X0.475000X-0.337500X0.475000X-0.337500X-0.475000X0.337500X-0.475000X0*%
%ADD33RoundRect,0.162500X0.825000X0.162500X-0.825000X0.162500X-0.825000X-0.162500X0.825000X-0.162500X0*%
%ADD34RoundRect,0.162500X-0.825000X-0.162500X0.825000X-0.162500X0.825000X0.162500X-0.825000X0.162500X0*%
%ADD35RoundRect,0.250000X-0.475000X0.337500X-0.475000X-0.337500X0.475000X-0.337500X0.475000X0.337500X0*%
%ADD36RoundRect,0.150000X-0.150000X0.875000X-0.150000X-0.875000X0.150000X-0.875000X0.150000X0.875000X0*%
%ADD37RoundRect,0.250000X1.500000X0.550000X-1.500000X0.550000X-1.500000X-0.550000X1.500000X-0.550000X0*%
%ADD38RoundRect,0.250000X0.550000X-1.250000X0.550000X1.250000X-0.550000X1.250000X-0.550000X-1.250000X0*%
%ADD39RoundRect,0.250000X0.450000X-0.325000X0.450000X0.325000X-0.450000X0.325000X-0.450000X-0.325000X0*%
G04 APERTURE END LIST*
D10*
%TO.C,U9*%
X63200000Y-118750000D03*
D11*
X63112500Y-120250000D03*
D10*
X63200000Y-121750000D03*
%TD*%
D12*
%TO.C,U10*%
X60250000Y-109250000D03*
D13*
X60337500Y-107750000D03*
D12*
X60250000Y-106250000D03*
%TD*%
D14*
%TO.C,U11*%
X57750000Y-88750000D03*
X57750000Y-86450000D03*
D15*
X64050000Y-86450000D03*
D14*
X57750000Y-84150000D03*
%TD*%
D16*
%TO.C,R20*%
X102750000Y-95650000D03*
X102750000Y-92550000D03*
%TD*%
D17*
%TO.C,C17*%
X64700000Y-113750000D03*
X60300000Y-113750000D03*
%TD*%
D18*
%TO.C,R17*%
X101800000Y-108250000D03*
X98700000Y-108250000D03*
%TD*%
D19*
%TO.C,R11*%
X114300000Y-113450000D03*
X114300000Y-116550000D03*
%TD*%
%TO.C,R10*%
X114300000Y-107550000D03*
X114300000Y-110650000D03*
%TD*%
D20*
%TO.C,C12*%
X82000000Y-86037500D03*
X82000000Y-83962500D03*
%TD*%
%TO.C,C24*%
X110325000Y-116037500D03*
X110325000Y-113962500D03*
%TD*%
D21*
%TO.C,R18*%
X104450000Y-116250000D03*
X107550000Y-116250000D03*
%TD*%
D19*
%TO.C,R23*%
X87500000Y-68950000D03*
X87500000Y-72050000D03*
%TD*%
%TO.C,R21*%
X94250000Y-68900000D03*
X94250000Y-72000000D03*
%TD*%
D22*
%TO.C,C15*%
X94962500Y-99750000D03*
X97037500Y-99750000D03*
%TD*%
D23*
%TO.C,C5*%
X86150000Y-97937500D03*
X86150000Y-101062500D03*
%TD*%
D24*
%TO.C,C30*%
X117687500Y-100000000D03*
X120812500Y-100000000D03*
%TD*%
D25*
%TO.C,C6*%
X92200000Y-107562500D03*
X92200000Y-104437500D03*
%TD*%
D26*
%TO.C,U8*%
X70000000Y-94500000D03*
D27*
X68500000Y-94412500D03*
D26*
X67000000Y-94500000D03*
%TD*%
D16*
%TO.C,R13*%
X121075000Y-116800000D03*
X121075000Y-113700000D03*
%TD*%
D25*
%TO.C,C7*%
X121075000Y-110562500D03*
X121075000Y-107437500D03*
%TD*%
D21*
%TO.C,R5*%
X89950000Y-111000000D03*
X93050000Y-111000000D03*
%TD*%
D28*
%TO.C,C29*%
X115062500Y-100000000D03*
X111937500Y-100000000D03*
%TD*%
D19*
%TO.C,R8*%
X89050000Y-103200000D03*
X89050000Y-106300000D03*
%TD*%
D23*
%TO.C,C4*%
X94250000Y-114437500D03*
X94250000Y-117562500D03*
%TD*%
D19*
%TO.C,R22*%
X91000000Y-68900000D03*
X91000000Y-72000000D03*
%TD*%
D29*
%TO.C,C19*%
X54250000Y-111150000D03*
X54250000Y-105750000D03*
%TD*%
D19*
%TO.C,R12*%
X117825000Y-107450000D03*
X117825000Y-110550000D03*
%TD*%
%TO.C,R19*%
X106800000Y-90850000D03*
X106800000Y-93950000D03*
%TD*%
D30*
%TO.C,FB4*%
X74825000Y-99600000D03*
X76875000Y-99600000D03*
%TD*%
D17*
%TO.C,C20*%
X70450000Y-101250000D03*
X66050000Y-101250000D03*
%TD*%
D31*
%TO.C,C26*%
X72500000Y-83850000D03*
X72500000Y-88250000D03*
%TD*%
D18*
%TO.C,R4*%
X76800000Y-110750000D03*
X73700000Y-110750000D03*
%TD*%
D25*
%TO.C,C1*%
X69250000Y-117062500D03*
X69250000Y-113937500D03*
%TD*%
D16*
%TO.C,R3*%
X74000000Y-107800000D03*
X74000000Y-104700000D03*
%TD*%
D32*
%TO.C,C10*%
X115075000Y-102500000D03*
X113000000Y-102500000D03*
%TD*%
D24*
%TO.C,C8*%
X98687500Y-105500000D03*
X101812500Y-105500000D03*
%TD*%
D33*
%TO.C,U5*%
X110325000Y-107690000D03*
X110325000Y-108960000D03*
X110325000Y-110230000D03*
X110325000Y-111500000D03*
X105250000Y-111500000D03*
X105250000Y-110230000D03*
X105250000Y-108960000D03*
X105250000Y-107690000D03*
%TD*%
D20*
%TO.C,C27*%
X105500000Y-79287500D03*
X105500000Y-77212500D03*
%TD*%
D34*
%TO.C,U1*%
X81675000Y-113560000D03*
X81675000Y-112290000D03*
X81675000Y-111020000D03*
X81675000Y-109750000D03*
X86750000Y-109750000D03*
X86750000Y-111020000D03*
X86750000Y-112290000D03*
X86750000Y-113560000D03*
%TD*%
D16*
%TO.C,R7*%
X91250000Y-117550000D03*
X91250000Y-114450000D03*
%TD*%
D21*
%TO.C,R9*%
X98700000Y-116250000D03*
X101800000Y-116250000D03*
%TD*%
D35*
%TO.C,C18*%
X66500000Y-118712500D03*
X66500000Y-120787500D03*
%TD*%
D22*
%TO.C,C11*%
X117500000Y-102500000D03*
X119575000Y-102500000D03*
%TD*%
D23*
%TO.C,C2*%
X76850000Y-104687500D03*
X76850000Y-107812500D03*
%TD*%
D19*
%TO.C,R24*%
X84000000Y-68950000D03*
X84000000Y-72050000D03*
%TD*%
%TO.C,R14*%
X117825000Y-113700000D03*
X117825000Y-116800000D03*
%TD*%
D36*
%TO.C,U4*%
X112170000Y-87700000D03*
X113440000Y-87700000D03*
X114710000Y-87700000D03*
X115980000Y-87700000D03*
X117250000Y-87700000D03*
X118520000Y-87700000D03*
X119790000Y-87700000D03*
X121060000Y-87700000D03*
X121060000Y-97000000D03*
X119790000Y-97000000D03*
X118520000Y-97000000D03*
X117250000Y-97000000D03*
X115980000Y-97000000D03*
X114710000Y-97000000D03*
X113440000Y-97000000D03*
X112170000Y-97000000D03*
%TD*%
D28*
%TO.C,C31*%
X92062500Y-97250000D03*
X88937500Y-97250000D03*
%TD*%
D24*
%TO.C,C32*%
X94937500Y-97250000D03*
X98062500Y-97250000D03*
%TD*%
D20*
%TO.C,C22*%
X105250000Y-103037500D03*
X105250000Y-100962500D03*
%TD*%
D23*
%TO.C,C3*%
X77250000Y-113937500D03*
X77250000Y-117062500D03*
%TD*%
D18*
%TO.C,R15*%
X100350000Y-112250000D03*
X97250000Y-112250000D03*
%TD*%
D37*
%TO.C,C28*%
X52500000Y-85750000D03*
X47100000Y-85750000D03*
%TD*%
D19*
%TO.C,R1*%
X70000000Y-107950000D03*
X70000000Y-111050000D03*
%TD*%
D21*
%TO.C,R27*%
X51200000Y-101750000D03*
X54300000Y-101750000D03*
%TD*%
D16*
%TO.C,R2*%
X73250000Y-117050000D03*
X73250000Y-113950000D03*
%TD*%
D32*
%TO.C,C25*%
X81637500Y-106200000D03*
X79562500Y-106200000D03*
%TD*%
D19*
%TO.C,R16*%
X95750000Y-105200000D03*
X95750000Y-108300000D03*
%TD*%
D22*
%TO.C,C21*%
X57212500Y-102500000D03*
X59287500Y-102500000D03*
%TD*%
D36*
%TO.C,U2*%
X87920000Y-84700000D03*
X89190000Y-84700000D03*
X90460000Y-84700000D03*
X91730000Y-84700000D03*
X93000000Y-84700000D03*
X94270000Y-84700000D03*
X95540000Y-84700000D03*
X96810000Y-84700000D03*
X96810000Y-94000000D03*
X95540000Y-94000000D03*
X94270000Y-94000000D03*
X93000000Y-94000000D03*
X91730000Y-94000000D03*
X90460000Y-94000000D03*
X89190000Y-94000000D03*
X87920000Y-94000000D03*
%TD*%
D38*
%TO.C,C13*%
X77000000Y-96000000D03*
X77000000Y-91600000D03*
%TD*%
D19*
%TO.C,R6*%
X86150000Y-103150000D03*
X86150000Y-106250000D03*
%TD*%
D32*
%TO.C,C14*%
X92037500Y-99750000D03*
X89962500Y-99750000D03*
%TD*%
D39*
%TO.C,FB3*%
X66750000Y-110000000D03*
X66750000Y-107950000D03*
%TD*%
D32*
%TO.C,C23*%
X86750000Y-116500000D03*
X84675000Y-116500000D03*
%TD*%
D22*
%TO.C,C9*%
X115462500Y-81500000D03*
X117537500Y-81500000D03*
%TD*%
D29*
%TO.C,C16*%
X54250000Y-121400000D03*
X54250000Y-116000000D03*
%TD*%
M02*
