%TF.GenerationSoftware,KiCad,Pcbnew,9.0.1*%
%TF.CreationDate,2025-05-12T14:22:14+02:00*%
%TF.ProjectId,PENDA2,50454e44-4132-42e6-9b69-6361645f7063,rev?*%
%TF.SameCoordinates,Original*%
%TF.FileFunction,Drillmap*%
%TF.FilePolarity,Positive*%
%FSLAX45Y45*%
G04 Gerber Fmt 4.5, Leading zero omitted, Abs format (unit mm)*
G04 Created by KiCad (PCBNEW 9.0.1) date 2025-05-12 14:22:14*
%MOMM*%
%LPD*%
G01*
G04 APERTURE LIST*
%ADD10C,0.050000*%
%ADD11C,0.200000*%
G04 APERTURE END LIST*
D10*
X4500000Y-4100000D02*
X4000000Y-4100000D01*
X12400000Y-4100000D02*
X12400000Y-12400000D01*
X4000000Y-4100000D02*
X4000000Y-12400000D01*
X4000000Y-12400000D02*
X12400000Y-12400000D01*
X12400000Y-4100000D02*
X11900000Y-4100000D01*
X4500000Y-3500000D02*
X4500000Y-4100000D01*
X11900000Y-4100000D02*
X11900000Y-3500000D01*
X11900000Y-3500000D02*
X4500000Y-3500000D01*
D11*
X4258277Y-12713984D02*
X4258277Y-12513984D01*
X4258277Y-12513984D02*
X4305896Y-12513984D01*
X4305896Y-12513984D02*
X4334467Y-12523508D01*
X4334467Y-12523508D02*
X4353515Y-12542555D01*
X4353515Y-12542555D02*
X4363039Y-12561603D01*
X4363039Y-12561603D02*
X4372563Y-12599698D01*
X4372563Y-12599698D02*
X4372563Y-12628269D01*
X4372563Y-12628269D02*
X4363039Y-12666365D01*
X4363039Y-12666365D02*
X4353515Y-12685412D01*
X4353515Y-12685412D02*
X4334467Y-12704460D01*
X4334467Y-12704460D02*
X4305896Y-12713984D01*
X4305896Y-12713984D02*
X4258277Y-12713984D01*
X4458277Y-12713984D02*
X4458277Y-12580650D01*
X4458277Y-12618746D02*
X4467801Y-12599698D01*
X4467801Y-12599698D02*
X4477324Y-12590174D01*
X4477324Y-12590174D02*
X4496372Y-12580650D01*
X4496372Y-12580650D02*
X4515420Y-12580650D01*
X4582086Y-12713984D02*
X4582086Y-12580650D01*
X4582086Y-12513984D02*
X4572563Y-12523508D01*
X4572563Y-12523508D02*
X4582086Y-12533031D01*
X4582086Y-12533031D02*
X4591610Y-12523508D01*
X4591610Y-12523508D02*
X4582086Y-12513984D01*
X4582086Y-12513984D02*
X4582086Y-12533031D01*
X4705896Y-12713984D02*
X4686848Y-12704460D01*
X4686848Y-12704460D02*
X4677324Y-12685412D01*
X4677324Y-12685412D02*
X4677324Y-12513984D01*
X4810658Y-12713984D02*
X4791610Y-12704460D01*
X4791610Y-12704460D02*
X4782086Y-12685412D01*
X4782086Y-12685412D02*
X4782086Y-12513984D01*
X5039229Y-12713984D02*
X5039229Y-12513984D01*
X5039229Y-12513984D02*
X5105896Y-12656841D01*
X5105896Y-12656841D02*
X5172563Y-12513984D01*
X5172563Y-12513984D02*
X5172563Y-12713984D01*
X5353515Y-12713984D02*
X5353515Y-12609222D01*
X5353515Y-12609222D02*
X5343991Y-12590174D01*
X5343991Y-12590174D02*
X5324944Y-12580650D01*
X5324944Y-12580650D02*
X5286848Y-12580650D01*
X5286848Y-12580650D02*
X5267801Y-12590174D01*
X5353515Y-12704460D02*
X5334467Y-12713984D01*
X5334467Y-12713984D02*
X5286848Y-12713984D01*
X5286848Y-12713984D02*
X5267801Y-12704460D01*
X5267801Y-12704460D02*
X5258277Y-12685412D01*
X5258277Y-12685412D02*
X5258277Y-12666365D01*
X5258277Y-12666365D02*
X5267801Y-12647317D01*
X5267801Y-12647317D02*
X5286848Y-12637793D01*
X5286848Y-12637793D02*
X5334467Y-12637793D01*
X5334467Y-12637793D02*
X5353515Y-12628269D01*
X5448753Y-12580650D02*
X5448753Y-12780650D01*
X5448753Y-12590174D02*
X5467801Y-12580650D01*
X5467801Y-12580650D02*
X5505896Y-12580650D01*
X5505896Y-12580650D02*
X5524944Y-12590174D01*
X5524944Y-12590174D02*
X5534467Y-12599698D01*
X5534467Y-12599698D02*
X5543991Y-12618746D01*
X5543991Y-12618746D02*
X5543991Y-12675888D01*
X5543991Y-12675888D02*
X5534467Y-12694936D01*
X5534467Y-12694936D02*
X5524944Y-12704460D01*
X5524944Y-12704460D02*
X5505896Y-12713984D01*
X5505896Y-12713984D02*
X5467801Y-12713984D01*
X5467801Y-12713984D02*
X5448753Y-12704460D01*
X5629705Y-12694936D02*
X5639229Y-12704460D01*
X5639229Y-12704460D02*
X5629705Y-12713984D01*
X5629705Y-12713984D02*
X5620182Y-12704460D01*
X5620182Y-12704460D02*
X5629705Y-12694936D01*
X5629705Y-12694936D02*
X5629705Y-12713984D01*
X5629705Y-12590174D02*
X5639229Y-12599698D01*
X5639229Y-12599698D02*
X5629705Y-12609222D01*
X5629705Y-12609222D02*
X5620182Y-12599698D01*
X5620182Y-12599698D02*
X5629705Y-12590174D01*
X5629705Y-12590174D02*
X5629705Y-12609222D01*
M02*
