%TF.GenerationSoftware,KiCad,Pcbnew,9.0.1*%
%TF.CreationDate,2025-05-23T09:46:46+02:00*%
%TF.ProjectId,PENDAII-Hardware,50454e44-4149-4492-9d48-617264776172,rev?*%
%TF.SameCoordinates,Original*%
%TF.FileFunction,Soldermask,Bot*%
%TF.FilePolarity,Negative*%
%FSLAX46Y46*%
G04 Gerber Fmt 4.6, Leading zero omitted, Abs format (unit mm)*
G04 Created by KiCad (PCBNEW 9.0.1) date 2025-05-23 09:46:46*
%MOMM*%
%LPD*%
G01*
G04 APERTURE LIST*
G04 Aperture macros list*
%AMRoundRect*
0 Rectangle with rounded corners*
0 $1 Rounding radius*
0 $2 $3 $4 $5 $6 $7 $8 $9 X,Y pos of 4 corners*
0 Add a 4 corners polygon primitive as box body*
4,1,4,$2,$3,$4,$5,$6,$7,$8,$9,$2,$3,0*
0 Add four circle primitives for the rounded corners*
1,1,$1+$1,$2,$3*
1,1,$1+$1,$4,$5*
1,1,$1+$1,$6,$7*
1,1,$1+$1,$8,$9*
0 Add four rect primitives between the rounded corners*
20,1,$1+$1,$2,$3,$4,$5,0*
20,1,$1+$1,$4,$5,$6,$7,0*
20,1,$1+$1,$6,$7,$8,$9,0*
20,1,$1+$1,$8,$9,$2,$3,0*%
%AMFreePoly0*
4,1,9,3.862500,-0.866500,0.737500,-0.866500,0.737500,-0.450000,-0.737500,-0.450000,-0.737500,0.450000,0.737500,0.450000,0.737500,0.866500,3.862500,0.866500,3.862500,-0.866500,3.862500,-0.866500,$1*%
G04 Aperture macros list end*
%ADD10R,2.000000X2.000000*%
%ADD11C,2.000000*%
%ADD12R,3.200000X2.000000*%
%ADD13C,1.900000*%
%ADD14C,1.400000*%
%ADD15O,1.400000X1.400000*%
%ADD16R,1.700000X1.700000*%
%ADD17O,1.700000X1.700000*%
%ADD18R,1.800000X2.000000*%
%ADD19C,1.800000*%
%ADD20R,2.000000X1.800000*%
%ADD21R,2.000000X3.200000*%
%ADD22RoundRect,0.225000X0.425000X0.225000X-0.425000X0.225000X-0.425000X-0.225000X0.425000X-0.225000X0*%
%ADD23FreePoly0,180.000000*%
%ADD24RoundRect,0.225000X-0.425000X-0.225000X0.425000X-0.225000X0.425000X0.225000X-0.425000X0.225000X0*%
%ADD25FreePoly0,0.000000*%
%ADD26RoundRect,0.375000X-0.625000X-0.375000X0.625000X-0.375000X0.625000X0.375000X-0.625000X0.375000X0*%
%ADD27RoundRect,0.500000X-0.500000X-1.400000X0.500000X-1.400000X0.500000X1.400000X-0.500000X1.400000X0*%
%ADD28RoundRect,0.250000X0.625000X-0.400000X0.625000X0.400000X-0.625000X0.400000X-0.625000X-0.400000X0*%
%ADD29RoundRect,0.250000X1.250000X0.550000X-1.250000X0.550000X-1.250000X-0.550000X1.250000X-0.550000X0*%
%ADD30RoundRect,0.250000X0.400000X0.625000X-0.400000X0.625000X-0.400000X-0.625000X0.400000X-0.625000X0*%
%ADD31RoundRect,0.250000X-0.625000X0.400000X-0.625000X-0.400000X0.625000X-0.400000X0.625000X0.400000X0*%
%ADD32RoundRect,0.250000X0.475000X-0.337500X0.475000X0.337500X-0.475000X0.337500X-0.475000X-0.337500X0*%
%ADD33RoundRect,0.250000X-0.400000X-0.625000X0.400000X-0.625000X0.400000X0.625000X-0.400000X0.625000X0*%
%ADD34RoundRect,0.250000X-0.337500X-0.475000X0.337500X-0.475000X0.337500X0.475000X-0.337500X0.475000X0*%
%ADD35RoundRect,0.250000X-0.650000X0.412500X-0.650000X-0.412500X0.650000X-0.412500X0.650000X0.412500X0*%
%ADD36RoundRect,0.250000X-0.412500X-0.650000X0.412500X-0.650000X0.412500X0.650000X-0.412500X0.650000X0*%
%ADD37RoundRect,0.250000X0.650000X-0.412500X0.650000X0.412500X-0.650000X0.412500X-0.650000X-0.412500X0*%
%ADD38RoundRect,0.225000X0.225000X-0.425000X0.225000X0.425000X-0.225000X0.425000X-0.225000X-0.425000X0*%
%ADD39FreePoly0,90.000000*%
%ADD40RoundRect,0.250000X0.412500X0.650000X-0.412500X0.650000X-0.412500X-0.650000X0.412500X-0.650000X0*%
%ADD41RoundRect,0.250000X0.550000X-0.950000X0.550000X0.950000X-0.550000X0.950000X-0.550000X-0.950000X0*%
%ADD42O,1.600000X2.400000*%
%ADD43RoundRect,0.250000X0.550000X-1.500000X0.550000X1.500000X-0.550000X1.500000X-0.550000X-1.500000X0*%
%ADD44RoundRect,0.250000X-0.325000X-0.450000X0.325000X-0.450000X0.325000X0.450000X-0.325000X0.450000X0*%
%ADD45RoundRect,0.250000X-0.550000X1.250000X-0.550000X-1.250000X0.550000X-1.250000X0.550000X1.250000X0*%
%ADD46R,1.600000X1.600000*%
%ADD47O,1.600000X1.600000*%
%ADD48RoundRect,0.250000X0.337500X0.475000X-0.337500X0.475000X-0.337500X-0.475000X0.337500X-0.475000X0*%
%ADD49R,1.500000X1.500000*%
%ADD50C,1.500000*%
%ADD51RoundRect,0.162500X0.825000X0.162500X-0.825000X0.162500X-0.825000X-0.162500X0.825000X-0.162500X0*%
%ADD52RoundRect,0.162500X-0.825000X-0.162500X0.825000X-0.162500X0.825000X0.162500X-0.825000X0.162500X0*%
%ADD53RoundRect,0.250000X-0.475000X0.337500X-0.475000X-0.337500X0.475000X-0.337500X0.475000X0.337500X0*%
%ADD54RoundRect,0.150000X-0.150000X0.875000X-0.150000X-0.875000X0.150000X-0.875000X0.150000X0.875000X0*%
%ADD55RoundRect,0.250000X1.500000X0.550000X-1.500000X0.550000X-1.500000X-0.550000X1.500000X-0.550000X0*%
%ADD56RoundRect,0.250000X0.550000X0.550000X-0.550000X0.550000X-0.550000X-0.550000X0.550000X-0.550000X0*%
%ADD57C,1.600000*%
%ADD58RoundRect,0.250000X0.550000X-1.250000X0.550000X1.250000X-0.550000X1.250000X-0.550000X-1.250000X0*%
%ADD59RoundRect,0.250000X0.450000X-0.325000X0.450000X0.325000X-0.450000X0.325000X-0.450000X-0.325000X0*%
G04 APERTURE END LIST*
D10*
%TO.C,SW3*%
X116500000Y-45100000D03*
D11*
X116500000Y-40100000D03*
X116500000Y-42600000D03*
D12*
X109000000Y-48200000D03*
X109000000Y-37000000D03*
D11*
X102000000Y-40100000D03*
D13*
X102000000Y-45100000D03*
%TD*%
D14*
%TO.C,R26*%
X119250000Y-52060000D03*
D15*
X119250000Y-44440000D03*
%TD*%
D16*
%TO.C,U6*%
X100975000Y-63960000D03*
D17*
X100975000Y-66500000D03*
X100975000Y-69040000D03*
X100975000Y-71580000D03*
X100975000Y-74120000D03*
X100975000Y-76660000D03*
X100975000Y-79200000D03*
X100975000Y-81740000D03*
%TD*%
D18*
%TO.C,SW2*%
X74500000Y-40000000D03*
D19*
X74500000Y-45000000D03*
X74500000Y-42500000D03*
D12*
X82000000Y-36900000D03*
X82000000Y-48100000D03*
D11*
X89000000Y-45000000D03*
X89000000Y-40000000D03*
%TD*%
D18*
%TO.C,SW4*%
X47500000Y-40000000D03*
D19*
X47500000Y-45000000D03*
X47500000Y-42500000D03*
D12*
X55000000Y-36900000D03*
X55000000Y-48100000D03*
D11*
X62000000Y-45000000D03*
X62000000Y-40000000D03*
%TD*%
D20*
%TO.C,SW1*%
X114900000Y-63000000D03*
D19*
X109900000Y-63000000D03*
X112400000Y-63000000D03*
D21*
X118000000Y-70500000D03*
X106800000Y-70500000D03*
D11*
X109900000Y-77500000D03*
X114900000Y-77500000D03*
%TD*%
D22*
%TO.C,U9*%
X63200000Y-118750000D03*
D23*
X63112500Y-120250000D03*
D22*
X63200000Y-121750000D03*
%TD*%
D24*
%TO.C,U10*%
X60250000Y-109250000D03*
D25*
X60337500Y-107750000D03*
D24*
X60250000Y-106250000D03*
%TD*%
D26*
%TO.C,U11*%
X57750000Y-88750000D03*
X57750000Y-86450000D03*
D27*
X64050000Y-86450000D03*
D26*
X57750000Y-84150000D03*
%TD*%
D28*
%TO.C,R20*%
X102750000Y-95650000D03*
X102750000Y-92550000D03*
%TD*%
D29*
%TO.C,C17*%
X64700000Y-113750000D03*
X60300000Y-113750000D03*
%TD*%
D30*
%TO.C,R17*%
X101800000Y-108250000D03*
X98700000Y-108250000D03*
%TD*%
D31*
%TO.C,R11*%
X114300000Y-113450000D03*
X114300000Y-116550000D03*
%TD*%
%TO.C,R10*%
X114300000Y-107550000D03*
X114300000Y-110650000D03*
%TD*%
D32*
%TO.C,C12*%
X82000000Y-86037500D03*
X82000000Y-83962500D03*
%TD*%
%TO.C,C24*%
X110325000Y-116037500D03*
X110325000Y-113962500D03*
%TD*%
D33*
%TO.C,R18*%
X104450000Y-116250000D03*
X107550000Y-116250000D03*
%TD*%
D31*
%TO.C,R23*%
X87500000Y-68950000D03*
X87500000Y-72050000D03*
%TD*%
%TO.C,R21*%
X94250000Y-68900000D03*
X94250000Y-72000000D03*
%TD*%
D34*
%TO.C,C15*%
X94962500Y-99750000D03*
X97037500Y-99750000D03*
%TD*%
D35*
%TO.C,C5*%
X86150000Y-97937500D03*
X86150000Y-101062500D03*
%TD*%
D36*
%TO.C,C30*%
X117687500Y-100000000D03*
X120812500Y-100000000D03*
%TD*%
D37*
%TO.C,C6*%
X92200000Y-107562500D03*
X92200000Y-104437500D03*
%TD*%
D38*
%TO.C,U8*%
X70000000Y-94500000D03*
D39*
X68500000Y-94412500D03*
D38*
X67000000Y-94500000D03*
%TD*%
D28*
%TO.C,R13*%
X121075000Y-116800000D03*
X121075000Y-113700000D03*
%TD*%
D37*
%TO.C,C7*%
X121075000Y-110562500D03*
X121075000Y-107437500D03*
%TD*%
D16*
%TO.C,J8*%
X41750000Y-98000000D03*
D17*
X41750000Y-95460000D03*
%TD*%
D33*
%TO.C,R5*%
X89950000Y-111000000D03*
X93050000Y-111000000D03*
%TD*%
D40*
%TO.C,C29*%
X115062500Y-100000000D03*
X111937500Y-100000000D03*
%TD*%
D14*
%TO.C,R25*%
X98190000Y-54500000D03*
D15*
X105810000Y-54500000D03*
%TD*%
D41*
%TO.C,U3*%
X95510000Y-77500000D03*
D42*
X92970000Y-77500000D03*
X90430000Y-77500000D03*
X87890000Y-77500000D03*
X85350000Y-77500000D03*
X82810000Y-77500000D03*
X80270000Y-77500000D03*
X77730000Y-77500000D03*
X75190000Y-77500000D03*
X72650000Y-77500000D03*
X70110000Y-77500000D03*
X67570000Y-77500000D03*
X65030000Y-77500000D03*
X62490000Y-77500000D03*
X59950000Y-77500000D03*
X57410000Y-77500000D03*
X54870000Y-77500000D03*
X52330000Y-77500000D03*
X49790000Y-77500000D03*
X47250000Y-77500000D03*
X47250000Y-62260000D03*
X49790000Y-62260000D03*
X52330000Y-62260000D03*
X54870000Y-62260000D03*
X57410000Y-62260000D03*
X59950000Y-62260000D03*
X62490000Y-62260000D03*
X65030000Y-62260000D03*
X67570000Y-62260000D03*
X70110000Y-62260000D03*
X72650000Y-62260000D03*
X75190000Y-62260000D03*
X77730000Y-62260000D03*
X80270000Y-62260000D03*
X82810000Y-62260000D03*
X85350000Y-62260000D03*
X87890000Y-62260000D03*
X90430000Y-62260000D03*
X92970000Y-62260000D03*
X95510000Y-62260000D03*
%TD*%
D31*
%TO.C,R8*%
X89050000Y-103200000D03*
X89050000Y-106300000D03*
%TD*%
D35*
%TO.C,C4*%
X94250000Y-114437500D03*
X94250000Y-117562500D03*
%TD*%
D31*
%TO.C,R22*%
X91000000Y-68900000D03*
X91000000Y-72000000D03*
%TD*%
D43*
%TO.C,C19*%
X54250000Y-111150000D03*
X54250000Y-105750000D03*
%TD*%
D16*
%TO.C,J2*%
X87290000Y-121750000D03*
D17*
X84750000Y-121750000D03*
%TD*%
D31*
%TO.C,R12*%
X117825000Y-107450000D03*
X117825000Y-110550000D03*
%TD*%
%TO.C,R19*%
X106800000Y-90850000D03*
X106800000Y-93950000D03*
%TD*%
D44*
%TO.C,FB4*%
X74825000Y-99600000D03*
X76875000Y-99600000D03*
%TD*%
D29*
%TO.C,C20*%
X70450000Y-101250000D03*
X66050000Y-101250000D03*
%TD*%
D45*
%TO.C,C26*%
X72500000Y-83850000D03*
X72500000Y-88250000D03*
%TD*%
D46*
%TO.C,D1*%
X121500000Y-63190000D03*
D47*
X121500000Y-70810000D03*
%TD*%
D16*
%TO.C,J6*%
X95250000Y-39775000D03*
D17*
X95250000Y-37235000D03*
%TD*%
D30*
%TO.C,R4*%
X76800000Y-110750000D03*
X73700000Y-110750000D03*
%TD*%
D37*
%TO.C,C1*%
X69250000Y-117062500D03*
X69250000Y-113937500D03*
%TD*%
D28*
%TO.C,R3*%
X74000000Y-107800000D03*
X74000000Y-104700000D03*
%TD*%
D48*
%TO.C,C10*%
X115075000Y-102500000D03*
X113000000Y-102500000D03*
%TD*%
D36*
%TO.C,C8*%
X98687500Y-105500000D03*
X101812500Y-105500000D03*
%TD*%
D49*
%TO.C,PS2*%
X46710000Y-98000000D03*
D50*
X49250000Y-98000000D03*
X54330000Y-98000000D03*
X59410000Y-98000000D03*
%TD*%
D51*
%TO.C,U5*%
X110325000Y-107690000D03*
X110325000Y-108960000D03*
X110325000Y-110230000D03*
X110325000Y-111500000D03*
X105250000Y-111500000D03*
X105250000Y-110230000D03*
X105250000Y-108960000D03*
X105250000Y-107690000D03*
%TD*%
D32*
%TO.C,C27*%
X105500000Y-79287500D03*
X105500000Y-77212500D03*
%TD*%
%TO.C,C33*%
X49850000Y-74437500D03*
X49850000Y-72362500D03*
%TD*%
D52*
%TO.C,U1*%
X81675000Y-113560000D03*
X81675000Y-112290000D03*
X81675000Y-111020000D03*
X81675000Y-109750000D03*
X86750000Y-109750000D03*
X86750000Y-111020000D03*
X86750000Y-112290000D03*
X86750000Y-113560000D03*
%TD*%
D32*
%TO.C,C34*%
X52650000Y-74487500D03*
X52650000Y-72412500D03*
%TD*%
D28*
%TO.C,R7*%
X91250000Y-117550000D03*
X91250000Y-114450000D03*
%TD*%
D33*
%TO.C,R9*%
X98700000Y-116250000D03*
X101800000Y-116250000D03*
%TD*%
D53*
%TO.C,C18*%
X66500000Y-118712500D03*
X66500000Y-120787500D03*
%TD*%
D34*
%TO.C,C11*%
X117500000Y-102500000D03*
X119575000Y-102500000D03*
%TD*%
D35*
%TO.C,C2*%
X76850000Y-104687500D03*
X76850000Y-107812500D03*
%TD*%
D31*
%TO.C,R24*%
X84000000Y-68950000D03*
X84000000Y-72050000D03*
%TD*%
%TO.C,R14*%
X117825000Y-113700000D03*
X117825000Y-116800000D03*
%TD*%
D16*
%TO.C,J3*%
X111275000Y-121750000D03*
D17*
X108735000Y-121750000D03*
%TD*%
D54*
%TO.C,U4*%
X112170000Y-87700000D03*
X113440000Y-87700000D03*
X114710000Y-87700000D03*
X115980000Y-87700000D03*
X117250000Y-87700000D03*
X118520000Y-87700000D03*
X119790000Y-87700000D03*
X121060000Y-87700000D03*
X121060000Y-97000000D03*
X119790000Y-97000000D03*
X118520000Y-97000000D03*
X117250000Y-97000000D03*
X115980000Y-97000000D03*
X114710000Y-97000000D03*
X113440000Y-97000000D03*
X112170000Y-97000000D03*
%TD*%
D40*
%TO.C,C31*%
X92062500Y-97250000D03*
X88937500Y-97250000D03*
%TD*%
D36*
%TO.C,C32*%
X94937500Y-97250000D03*
X98062500Y-97250000D03*
%TD*%
D32*
%TO.C,C22*%
X105250000Y-103037500D03*
X105250000Y-100962500D03*
%TD*%
D35*
%TO.C,C3*%
X77250000Y-113937500D03*
X77250000Y-117062500D03*
%TD*%
D30*
%TO.C,R15*%
X100350000Y-112250000D03*
X97250000Y-112250000D03*
%TD*%
D55*
%TO.C,C28*%
X52500000Y-85750000D03*
X47100000Y-85750000D03*
%TD*%
D56*
%TO.C,U7*%
X122500000Y-54420000D03*
D57*
X122500000Y-56960000D03*
X122500000Y-59500000D03*
X114880000Y-59500000D03*
X114880000Y-56960000D03*
X114880000Y-54420000D03*
%TD*%
D16*
%TO.C,J1*%
X76025000Y-121750000D03*
D17*
X73485000Y-121750000D03*
%TD*%
D31*
%TO.C,R1*%
X70000000Y-107950000D03*
X70000000Y-111050000D03*
%TD*%
D33*
%TO.C,R27*%
X51200000Y-101750000D03*
X54300000Y-101750000D03*
%TD*%
D28*
%TO.C,R2*%
X73250000Y-117050000D03*
X73250000Y-113950000D03*
%TD*%
D48*
%TO.C,C25*%
X81637500Y-106200000D03*
X79562500Y-106200000D03*
%TD*%
D31*
%TO.C,R16*%
X95750000Y-105200000D03*
X95750000Y-108300000D03*
%TD*%
D34*
%TO.C,C21*%
X57212500Y-102500000D03*
X59287500Y-102500000D03*
%TD*%
D54*
%TO.C,U2*%
X87920000Y-84700000D03*
X89190000Y-84700000D03*
X90460000Y-84700000D03*
X91730000Y-84700000D03*
X93000000Y-84700000D03*
X94270000Y-84700000D03*
X95540000Y-84700000D03*
X96810000Y-84700000D03*
X96810000Y-94000000D03*
X95540000Y-94000000D03*
X94270000Y-94000000D03*
X93000000Y-94000000D03*
X91730000Y-94000000D03*
X90460000Y-94000000D03*
X89190000Y-94000000D03*
X87920000Y-94000000D03*
%TD*%
D58*
%TO.C,C13*%
X77000000Y-96000000D03*
X77000000Y-91600000D03*
%TD*%
D31*
%TO.C,R6*%
X86150000Y-103150000D03*
X86150000Y-106250000D03*
%TD*%
D48*
%TO.C,C14*%
X92037500Y-99750000D03*
X89962500Y-99750000D03*
%TD*%
D16*
%TO.C,J7*%
X121750000Y-44475000D03*
D17*
X121750000Y-47015000D03*
%TD*%
D49*
%TO.C,PS1*%
X41987500Y-106187500D03*
D50*
X41987500Y-108727500D03*
X41987500Y-113807500D03*
X41987500Y-116347500D03*
X41987500Y-118887500D03*
%TD*%
D59*
%TO.C,FB3*%
X66750000Y-110000000D03*
X66750000Y-107950000D03*
%TD*%
D16*
%TO.C,J4*%
X98775000Y-121750000D03*
D17*
X96235000Y-121750000D03*
%TD*%
D48*
%TO.C,C23*%
X86750000Y-116500000D03*
X84675000Y-116500000D03*
%TD*%
D34*
%TO.C,C9*%
X115462500Y-81500000D03*
X117537500Y-81500000D03*
%TD*%
D43*
%TO.C,C16*%
X54250000Y-121400000D03*
X54250000Y-116000000D03*
%TD*%
D16*
%TO.C,J5*%
X67250000Y-40025000D03*
D17*
X67250000Y-37485000D03*
%TD*%
M02*
