M48
; DRILL file {KiCad 9.0.1} date 2025-05-12T14:22:14+0200
; FORMAT={-:-/ absolute / metric / decimal}
; #@! TF.CreationDate,2025-05-12T14:22:14+02:00
; #@! TF.GenerationSoftware,Kicad,Pcbnew,9.0.1
; #@! TF.FileFunction,Plated,1,2,PTH
FMAT,2
METRIC
; #@! TA.AperFunction,Plated,PTH,ViaDrill
T1C0.500
; #@! TA.AperFunction,Plated,PTH,ComponentDrill
T2C0.700
; #@! TA.AperFunction,Plated,PTH,ViaDrill
T3C0.800
; #@! TA.AperFunction,Plated,PTH,ComponentDrill
T4C0.800
; #@! TA.AperFunction,Plated,PTH,ComponentDrill
T5C1.000
; #@! TA.AperFunction,Plated,PTH,ViaDrill
T6C1.200
; #@! TA.AperFunction,Plated,PTH,ComponentDrill
T7C1.500
%
G90
G05
T1
X42.0Y-44.0
X43.899Y-67.283
X44.5Y-50.25
X48.75Y-53.75
X49.5Y-87.95
X51.05Y-79.8
X54.95Y-88.5
X61.25Y-75.5
X62.25Y-70.5
X71.0Y-44.75
X72.0Y-69.5
X72.1Y-92.1
X72.1Y-95.9
X81.0Y-74.5
X81.0Y-92.0
X83.0Y-115.0
X83.5Y-93.8
X84.45Y-92.4
X86.15Y-96.25
X86.15Y-107.45
X86.3Y-93.4
X89.75Y-90.5
X96.85Y-91.4
X98.5Y-46.0
X108.0Y-60.75
X112.17Y-95.08
X116.6Y-95.0
X119.8Y-94.8
X121.05Y-90.8
T2
X98.19Y-54.5
X105.81Y-54.5
X119.25Y-44.44
X119.25Y-52.06
T3
X57.0Y-101.25
X59.75Y-70.5
X62.75Y-94.5
X63.5Y-103.25
X64.75Y-58.5
X64.75Y-70.0
X67.8Y-88.7
X70.11Y-71.25
X70.75Y-49.75
X70.75Y-58.25
X71.75Y-103.5
X75.19Y-70.0
X77.75Y-74.25
X79.0Y-87.75
X81.0Y-99.0
X81.65Y-108.0
X83.5Y-81.75
X83.5Y-87.5
X85.212Y-82.962
X87.5Y-117.75
X87.625Y-90.625
X90.55Y-108.25
X91.73Y-86.48
X92.0Y-101.25
X93.0Y-83.0
X94.25Y-81.75
X94.3Y-91.1
X95.0Y-112.0
X95.5Y-82.75
X96.5Y-110.5
X98.375Y-80.25
X98.5Y-84.7
X99.35Y-90.9
X100.0Y-87.5
X101.75Y-85.75
X102.75Y-90.5
X102.8Y-113.6
X103.35Y-101.0
X103.75Y-105.5
X105.0Y-90.7
X106.9Y-98.25
X107.0Y-103.037
X108.55Y-114.0
X109.67Y-87.75
X110.6Y-100.05
X110.75Y-104.25
X112.65Y-107.55
X115.3Y-118.6
X115.5Y-92.5
X116.75Y-104.0
X118.5Y-85.75
X120.25Y-84.7
X121.0Y-102.5
X121.75Y-83.5
T4
X47.25Y-62.26
X47.25Y-77.5
X49.79Y-62.26
X49.79Y-77.5
X52.33Y-62.26
X52.33Y-77.5
X54.87Y-62.26
X54.87Y-77.5
X57.41Y-62.26
X57.41Y-77.5
X59.95Y-62.26
X59.95Y-77.5
X62.49Y-62.26
X62.49Y-77.5
X65.03Y-62.26
X65.03Y-77.5
X67.57Y-62.26
X67.57Y-77.5
X70.11Y-62.26
X70.11Y-77.5
X72.65Y-62.26
X72.65Y-77.5
X75.19Y-62.26
X75.19Y-77.5
X77.73Y-62.26
X77.73Y-77.5
X80.27Y-62.26
X80.27Y-77.5
X82.81Y-62.26
X82.81Y-77.5
X85.35Y-62.26
X85.35Y-77.5
X87.89Y-62.26
X87.89Y-77.5
X90.43Y-62.26
X90.43Y-77.5
X92.97Y-62.26
X92.97Y-77.5
X95.51Y-62.26
X95.51Y-77.5
X114.88Y-54.42
X114.88Y-56.96
X114.88Y-59.5
X121.5Y-63.19
X121.5Y-70.81
X122.5Y-54.42
X122.5Y-56.96
X122.5Y-59.5
T5
X41.75Y-95.46
X41.75Y-98.0
X41.987Y-106.188
X41.987Y-108.727
X41.987Y-113.807
X41.987Y-116.347
X41.987Y-118.887
X46.71Y-98.0
X47.5Y-40.0
X47.5Y-42.5
X47.5Y-45.0
X49.25Y-98.0
X54.33Y-98.0
X59.41Y-98.0
X62.0Y-40.0
X62.0Y-45.0
X67.25Y-37.485
X67.25Y-40.025
X73.485Y-121.75
X74.5Y-40.0
X74.5Y-42.5
X74.5Y-45.0
X76.025Y-121.75
X84.75Y-121.75
X87.29Y-121.75
X89.0Y-40.0
X89.0Y-45.0
X95.25Y-37.235
X95.25Y-39.775
X96.235Y-121.75
X98.775Y-121.75
X100.975Y-63.96
X100.975Y-66.5
X100.975Y-69.04
X100.975Y-71.58
X100.975Y-74.12
X100.975Y-76.66
X100.975Y-79.2
X100.975Y-81.74
X102.0Y-40.1
X102.0Y-45.1
X108.735Y-121.75
X109.9Y-63.0
X109.9Y-77.5
X111.275Y-121.75
X112.4Y-63.0
X114.9Y-63.0
X114.9Y-77.5
X116.5Y-40.1
X116.5Y-42.6
X116.5Y-45.1
X121.75Y-44.475
X121.75Y-47.015
T6
X43.5Y-72.75
X57.75Y-93.0
X66.75Y-105.75
X76.75Y-84.0
X79.75Y-101.75
X81.25Y-119.75
X99.75Y-102.25
X105.0Y-120.5
T7
G00X54.35Y-36.9
M15
G01X55.65Y-36.9
M16
G05
G00X54.35Y-48.1
M15
G01X55.65Y-48.1
M16
G05
G00X81.35Y-36.9
M15
G01X82.65Y-36.9
M16
G05
G00X81.35Y-48.1
M15
G01X82.65Y-48.1
M16
G05
G00X106.8Y-69.85
M15
G01X106.8Y-71.15
M16
G05
G00X109.65Y-37.0
M15
G01X108.35Y-37.0
M16
G05
G00X109.65Y-48.2
M15
G01X108.35Y-48.2
M16
G05
G00X118.0Y-69.85
M15
G01X118.0Y-71.15
M16
G05
M30
